<svg width="32" height="32" viewBox="0 0 32 32" fill="none" xmlns="http://www.w3.org/2000/svg">
<path d="M16 0C7.17714 0 0 7.17714 0 16C0 24.8229 7.17714 32 16 32C24.8229 32 32 24.8229 32 16C32 7.17714 24.8229 0 16 0Z" fill="white"/>
<path d="M19.0646 13.5592C17.6964 13.5592 17.0825 14.3135 16.7429 14.8392V13.7421H14.1633C14.196 14.4702 14.1633 21.5037 14.1633 21.5037H16.7429V17.1674C16.7429 16.9355 16.7592 16.7037 16.8278 16.5372C17.0139 16.0735 17.4384 15.5935 18.1503 15.5935C19.0841 15.5935 19.4564 16.3053 19.4564 17.3502V21.5037H22.036V17.0498C22.0327 14.6661 20.7592 13.5592 19.0646 13.5592ZM16.7397 14.8653H16.7233C16.7299 14.8555 16.7364 14.849 16.7397 14.8392V14.8653Z" fill="#1D2023"/>
<path d="M12.7332 13.7421H10.1536V21.5037H12.7332V13.7421Z" fill="#1D2023"/>
<path d="M11.4596 10C10.578 10 10 10.578 10 11.342C10 12.0865 10.5616 12.6841 11.4237 12.6841H11.44C12.3412 12.6841 12.8996 12.0865 12.8996 11.342C12.8865 10.578 12.3412 10 11.4596 10Z" fill="#1D2023"/>
</svg>
