<?xml version="1.0" encoding="UTF-8" standalone="no" ?>
<!DOCTYPE svg PUBLIC "-//W3C//DTD SVG 1.1//EN" "http://www.w3.org/Graphics/SVG/1.1/DTD/svg11.dtd">
<svg xmlns="http://www.w3.org/2000/svg" xmlns:xlink="http://www.w3.org/1999/xlink" version="1.1" width="1080" height="1080" viewBox="0 0 1080 1080" xml:space="preserve">
<desc>Created with Fabric.js 4.2.0</desc>
<defs>
</defs>
<rect x="0" y="0" width="100%" height="100%" fill="transparent"></rect>
<g transform="matrix(1 0 0 1 540 540)" id="c7abc366-98aa-4c3b-820d-a4cb9b353e8d"  >
<rect style="stroke: none; stroke-width: 1; stroke-dasharray: none; stroke-linecap: butt; stroke-dashoffset: 0; stroke-linejoin: miter; stroke-miterlimit: 4; fill: rgb(255,255,255); fill-opacity: 0; fill-rule: nonzero; opacity: 1;" vector-effect="non-scaling-stroke"  x="-540" y="-540" rx="0" ry="0" width="1080" height="1080" />
</g>
<g transform="matrix(1 0 0 1 540 540)" id="72c20bcc-fd0a-44ba-a8bc-87eeef87cef9"  >
</g>
<g transform="matrix(26.67 0 0 26.67 540 540)" id="0532681a-c17e-475d-b269-784b504fad6c"  >
<path style="stroke: rgb(0,0,0); stroke-width: 0; stroke-dasharray: none; stroke-linecap: butt; stroke-dashoffset: 0; stroke-linejoin: miter; stroke-miterlimit: 4; fill: rgb(0,0,0); fill-rule: nonzero; opacity: 1;" vector-effect="non-scaling-stroke"  transform=" translate(-12.1, -12.6)" d="M 20.2 14.6558 L 16.3829 14.6558 C 16.0589 13.6694 15.745 12.6208 15.4615 11.541 L 17.1625 11.541 L 17.1625 9.4645 L 14.9553 9.4645 C 14.6414 8.09401 14.368 6.68197 14.125 5.22842 L 14.125 4.27325 C 14.125 4.10713 14.0845 3.95138 14.0136 3.80602 L 13.0011 1.72952 C 12.6569 1.02351 11.533 1.02351 11.1888 1.72952 L 10.1763 3.80602 C 10.1054 3.95138 10.0649 4.10713 10.0649 4.27325 L 10.0649 5.22842 C 9.82188 6.68197 9.5485 8.10439 9.23462 9.4645 L 7.0375 9.4645 L 7.0375 11.541 L 8.73849 11.541 C 8.45499 12.6208 8.14113 13.6694 7.81713 14.6558 L 4 14.6558 L 4 16.7323 L 7.07799 16.7323 C 6.19712 19.0164 5.22512 20.9372 4.2025 22.3388 C 3.96962 22.6503 3.93925 23.076 4.11138 23.429 C 4.2835 23.782 4.63788 24 5.0125 24 L 10.075 24 C 10.6319 24 11.0875 23.5328 11.0875 22.9618 L 11.0875 20.8853 L 13.1125 20.8853 L 13.1125 22.9618 C 13.1125 23.5328 13.5681 24 14.125 24 L 19.1875 24 C 19.5723 24 19.9266 23.782 20.0886 23.429 C 20.2607 23.076 20.2203 22.6607 19.9975 22.3388 C 18.9749 20.9372 17.9928 19.0164 17.122 16.7323 L 20.2 16.7323 L 20.2 14.6558 Z M 12.1 5.3115 C 12.1 5.73718 12.7784 9.01805 12.8796 9.4645 L 11.3204 9.4645 C 11.4216 9.01805 12.1 5.73718 12.1 5.3115 Z M 10.8344 11.541 L 13.3757 11.541 C 13.6289 12.5481 13.9225 13.5967 14.2566 14.6558 L 9.96362 14.6558 C 10.2876 13.5967 10.5813 12.5481 10.8344 11.541 Z M 17.2941 21.9235 L 15.1375 21.9235 L 15.1375 20.8853 C 15.1375 19.7432 14.2263 18.8088 13.1125 18.8088 L 11.0875 18.8088 C 9.97375 18.8088 9.0625 19.7432 9.0625 20.8853 L 9.0625 21.9235 L 6.90587 21.9235 C 7.82725 20.3454 8.60687 18.5492 9.265 16.7323 L 14.9451 16.7323 C 15.6032 18.5492 16.3728 20.3454 17.2941 21.9235 Z" stroke-linecap="round" />
</g>
<g transform="matrix(9.08 0 0 9.08 540 575.37)" id="f706619e-f308-4486-9237-e808687c05a6"  >
<path style="stroke: rgb(255,255,255); stroke-width: 0; stroke-dasharray: none; stroke-linecap: butt; stroke-dashoffset: 0; stroke-linejoin: miter; stroke-miterlimit: 4; fill: rgb(255,255,255); fill-rule: nonzero; opacity: 1;" vector-effect="non-scaling-stroke"  transform=" translate(-50, -50)" d="M 50 92.875 C 26.358 92.875 7.125 73.642 7.125 50 C 7.125 26.358000000000004 26.358 7.125 50 7.125 C 73.642 7.125 92.875 26.358 92.875 50 C 92.875 73.642 73.642 92.875 50 92.875 z M 50 9.125 C 27.461 9.125 9.125 27.461 9.125 50 C 9.125 72.538 27.461 90.875 50 90.875 C 72.538 90.875 90.875 72.538 90.875 50 C 90.875 27.461 72.538 9.125 50 9.125 z" stroke-linecap="round" />
</g>
</svg>