<svg width="32" height="32" viewBox="0 0 32 32" fill="none" xmlns="http://www.w3.org/2000/svg">
<circle cx="16" cy="16" r="16" fill="white"/>
<path d="M19.0801 17.47C18.854 17.33 18.5138 17.3692 18.322 17.5575L16.8205 19.059C16.628 19.2473 16.3228 19.2473 16.1345 19.059L12.7597 15.6829C12.5714 15.4946 12.5714 15.1852 12.7597 14.9962L14.1744 13.5828C14.3628 13.3945 14.3915 13.0606 14.2381 12.8436L11.6649 9.1952C11.513 8.9782 11.2155 8.9355 11.0062 9.1007C11.0062 9.1007 9 10.6939 9 12.1569C9 18.1455 13.8545 23 19.8424 23C21.3075 23 22.7306 20.3134 22.7306 20.3134C22.8559 20.0782 22.7726 19.7688 22.5458 19.6281L19.0801 17.47Z" fill="#1D2023"/>
</svg>
