<svg width="32" height="32" viewBox="0 0 32 32" fill="none" xmlns="http://www.w3.org/2000/svg">
<circle cx="16" cy="16" r="16" fill="white"/>
<path d="M13.4027 22.3758C18.6858 22.3758 21.5754 17.9988 21.5754 14.2031C21.5754 14.0788 21.5754 13.955 21.567 13.8318C22.1291 13.4252 22.6144 12.9218 23 12.345C22.4758 12.5773 21.9197 12.7297 21.3502 12.797C21.9499 12.438 22.3986 11.8734 22.613 11.2082C22.0492 11.5428 21.4324 11.7786 20.7891 11.9054C20.356 11.4449 19.7833 11.14 19.1594 11.0378C18.5356 10.9357 17.8955 11.0419 17.3381 11.3402C16.7808 11.6385 16.3373 12.1122 16.0763 12.6879C15.8152 13.2636 15.7512 13.9093 15.8942 14.5251C14.7522 14.4679 13.635 14.1711 12.6152 13.6541C11.5953 13.1371 10.6956 12.4114 9.9744 11.5241C9.60709 12.1564 9.49459 12.905 9.65981 13.6173C9.82502 14.3297 10.2555 14.9523 10.8637 15.3584C10.4066 15.3449 9.95944 15.2215 9.56 14.9989C9.56 15.0106 9.56 15.023 9.56 15.0353C9.56018 15.6984 9.78975 16.3411 10.2098 16.8543C10.6298 17.3675 11.2144 17.7196 11.8644 17.851C11.4415 17.9663 10.9978 17.9831 10.5674 17.9002C10.751 18.471 11.1083 18.9701 11.5895 19.3277C12.0706 19.6854 12.6515 19.8837 13.251 19.895C12.2339 20.6943 10.9774 21.1283 9.68376 21.127C9.45523 21.1265 9.22691 21.1127 9 21.0855C10.3136 21.9285 11.842 22.3756 13.4027 22.3735" fill="#1D2023"/>
</svg>
