<svg width="514" height="6" viewBox="0 0 514 6" fill="none" xmlns="http://www.w3.org/2000/svg">
<path d="M-545.5 1C-542.479 1 -540.888 2.199 -539.488 3.26191L-539.471 3.27515C-538.244 4.20653 -537.198 5 -534.961 5C-532.723 5 -531.677 4.20653 -530.45 3.27515L-530.433 3.26191C-529.033 2.199 -527.442 1 -524.421 1C-521.4 1 -519.81 2.199 -518.409 3.26191L-518.392 3.27515C-517.165 4.20653 -516.119 5 -513.882 5C-511.644 5 -510.598 4.20653 -509.371 3.27515L-509.354 3.26191C-507.954 2.199 -506.363 1 -503.342 1C-500.321 1 -498.731 2.199 -497.33 3.26191L-497.313 3.27515C-496.086 4.20653 -495.041 5 -492.803 5C-490.565 5 -489.519 4.20653 -488.292 3.27515L-488.275 3.26191C-486.875 2.199 -485.284 1 -482.263 1C-479.242 1 -477.652 2.199 -476.251 3.26191L-476.234 3.27515C-475.007 4.20653 -473.962 5 -471.724 5C-469.486 5 -468.44 4.20653 -467.213 3.27515L-467.196 3.26191C-465.796 2.199 -464.205 1 -461.184 1C-458.163 1 -456.573 2.199 -455.172 3.26191L-455.155 3.27515C-453.928 4.20653 -452.883 5 -450.645 5C-448.407 5 -447.362 4.20652 -446.135 3.27514L-446.117 3.26191C-444.717 2.199 -443.126 1 -440.105 1C-437.084 1 -435.494 2.199 -434.093 3.26191L-434.076 3.27517C-432.849 4.20654 -431.804 5 -429.566 5C-427.328 5 -426.283 4.20653 -425.056 3.27515L-425.038 3.26191C-423.638 2.199 -422.048 1 -419.026 1C-416.005 1 -414.415 2.199 -413.014 3.26191L-412.997 3.27515C-411.77 4.20653 -410.725 5 -408.487 5C-406.249 5 -405.204 4.20653 -403.977 3.27515L-403.959 3.26191C-402.559 2.199 -400.969 1 -397.947 1C-394.926 1 -393.336 2.199 -391.936 3.26191L-391.918 3.27517C-390.691 4.20654 -389.646 5 -387.408 5C-385.17 5 -384.125 4.20653 -382.898 3.27515L-382.88 3.26191C-381.48 2.199 -379.89 1 -376.868 1C-373.847 1 -372.257 2.199 -370.857 3.26191L-370.839 3.27517C-369.612 4.20654 -368.567 5 -366.329 5C-364.091 5 -363.046 4.20653 -361.819 3.27516L-361.801 3.26191C-360.401 2.199 -358.811 1 -355.789 1C-352.768 1 -351.178 2.199 -349.778 3.26191L-349.76 3.27515C-348.533 4.20653 -347.488 5 -345.25 5C-343.012 5 -341.967 4.20654 -340.74 3.27518L-340.722 3.26191C-339.322 2.199 -337.732 1 -334.711 1C-331.689 1 -330.099 2.199 -328.699 3.26191L-328.681 3.27518C-327.454 4.20655 -326.409 5 -324.171 5C-321.933 5 -320.888 4.20654 -319.661 3.27518L-319.643 3.26191C-318.243 2.199 -316.653 1 -313.632 1C-310.61 1 -309.02 2.199 -307.62 3.26191L-307.602 3.27516C-306.375 4.20653 -305.33 5 -303.092 5C-300.854 5 -299.809 4.20654 -298.582 3.27518L-298.564 3.26191C-297.164 2.199 -295.574 1 -292.553 1C-289.531 1 -287.941 2.199 -286.541 3.26191L-286.523 3.27516C-285.296 4.20653 -284.251 5 -282.013 5C-279.775 5 -278.73 4.20654 -277.503 3.27518L-277.486 3.26191C-276.085 2.199 -274.495 1 -271.474 1C-268.452 1 -266.862 2.199 -265.462 3.26191L-265.444 3.27518C-264.217 4.20655 -263.172 5 -260.934 5C-258.696 5 -257.651 4.20653 -256.424 3.27516L-256.407 3.26191C-255.006 2.199 -253.416 1 -250.395 1C-247.373 1 -245.783 2.199 -244.383 3.26191L-244.365 3.27518C-243.138 4.20655 -242.093 5 -239.855 5C-237.617 5 -236.572 4.20654 -235.345 3.27518L-235.328 3.26191C-233.927 2.199 -232.337 1 -229.316 1C-226.295 1 -224.704 2.199 -223.304 3.26191L-223.286 3.27518C-222.059 4.20655 -221.014 5 -218.776 5C-216.538 5 -215.493 4.20653 -214.266 3.27516L-214.249 3.26191C-212.848 2.199 -211.258 1 -208.237 1C-205.216 1 -203.625 2.199 -202.225 3.26191L-202.208 3.27516C-200.981 4.20653 -199.935 5 -197.697 5C-195.459 5 -194.414 4.20654 -193.187 3.27518L-193.17 3.26191C-191.769 2.199 -190.179 1 -187.158 1C-184.137 1 -182.546 2.199 -181.146 3.26191L-181.129 3.27516C-179.902 4.20653 -178.856 5 -176.618 5C-174.38 5 -173.335 4.20653 -172.108 3.27516L-172.091 3.26191C-170.69 2.199 -169.1 1 -166.079 1C-163.058 1 -161.467 2.199 -160.067 3.26191L-160.05 3.2751C-158.823 4.2065 -157.777 5 -155.539 5C-153.302 5 -152.256 4.20653 -151.029 3.27516L-151.012 3.26191C-149.612 2.199 -148.021 1 -145 1C-141.97 1 -140.376 2.19756 -138.971 3.26033L-138.953 3.27369C-137.721 4.20518 -136.67 5 -134.421 5C-132.172 5 -131.121 4.20515 -129.889 3.27365L-129.872 3.26033C-128.466 2.19756 -126.872 1 -123.842 1C-120.812 1 -119.218 2.19756 -117.813 3.26033L-117.795 3.27369C-116.563 4.20518 -115.512 5 -113.263 5C-111.014 5 -109.963 4.20518 -108.731 3.27369L-108.714 3.26033C-107.308 2.19756 -105.714 1 -102.684 1C-99.6545 1 -98.0601 2.19756 -96.6547 3.26033L-96.6371 3.27365C-95.4054 4.20515 -94.3544 5 -92.1053 5C-89.8562 5 -88.8052 4.20518 -87.5735 3.27369L-87.5558 3.26033C-86.1504 2.19756 -84.556 1 -81.5263 1C-78.4966 1 -76.9022 2.19756 -75.4968 3.26033L-75.4792 3.27365C-74.2475 4.20515 -73.1965 5 -70.9474 5C-68.6983 5 -67.6473 4.20518 -66.4156 3.27369L-66.3979 3.26033C-64.9925 2.19756 -63.3981 1 -60.3684 1C-57.3388 1 -55.7443 2.19756 -54.3389 3.26033L-54.3212 3.27369C-53.0895 4.20518 -52.0385 5 -49.7895 5C-47.5404 5 -46.4893 4.20515 -45.2576 3.27365L-45.24 3.26033C-43.8346 2.19756 -42.2402 1 -39.2105 1C-36.1809 1 -34.5864 2.19756 -33.1811 3.26033L-33.1633 3.27369C-31.9316 4.20518 -30.8806 5 -28.6316 5C-26.3825 5 -25.3315 4.20518 -24.0998 3.27369L-24.0821 3.26033C-22.6767 2.19756 -21.0823 1 -18.0526 1C-15.0229 1 -13.4285 2.19756 -12.0231 3.26033L-12.0056 3.27365C-10.7738 4.20515 -9.72278 5 -7.47369 5C-5.22466 5 -4.17363 4.20518 -2.94193 3.27369L-2.92421 3.26033C-1.51883 2.19756 0.0756073 1 3.10527 1C6.13493 1 7.72937 2.19756 9.13475 3.26033L9.15247 3.27369C10.3842 4.20518 11.4352 5 13.6842 5C15.9333 5 16.9843 4.20515 18.2161 3.27365L18.2337 3.26033C19.6391 2.19756 21.2335 1 24.2632 1C27.2928 1 28.8873 2.19756 30.2926 3.26033L30.3103 3.27369C31.5421 4.20518 32.5931 5 34.8421 5C37.0912 5 38.1422 4.20515 39.374 3.27365L39.3916 3.26033C40.7969 2.19756 42.3914 1 45.421 1C48.4507 1 50.0451 2.19756 51.4505 3.26033L51.4682 3.27369C52.6999 4.20518 53.751 5 56 5C58.249 5 59.3001 4.20518 60.5318 3.27369L60.5495 3.26033C61.9549 2.19756 63.5493 1 66.579 1C69.6086 1 71.2031 2.19756 72.6084 3.26033L72.6262 3.27369C73.8579 4.20518 74.9089 5 77.1579 5C79.407 5 80.458 4.20515 81.6898 3.27365L81.7074 3.26033C83.1127 2.19756 84.7072 1 87.7368 1C90.7665 1 92.3609 2.19756 93.7663 3.26033L93.784 3.27369C95.0157 4.20518 96.0668 5 98.3158 5C100.565 5 101.616 4.20515 102.848 3.27365L102.865 3.26033C104.271 2.19756 105.865 1 108.895 1C111.924 1 113.519 2.19756 114.924 3.26033L114.942 3.27369C116.174 4.20518 117.225 5 119.474 5C121.723 5 122.774 4.20518 124.005 3.27369L124.023 3.26033C125.429 2.19756 127.023 1 130.053 1C133.082 1 134.677 2.19756 136.082 3.26033L136.1 3.27365C137.331 4.20515 138.382 5 140.632 5C142.881 5 143.932 4.20518 145.163 3.27369L145.181 3.26033C146.586 2.19756 148.181 1 151.211 1C154.24 1 155.835 2.19756 157.24 3.26033L157.258 3.27365C158.489 4.20515 159.54 5 161.789 5C164.038 5 165.09 4.20518 166.321 3.27369L166.339 3.26033C167.744 2.19756 169.339 1 172.368 1C175.398 1 176.993 2.19756 178.398 3.26033L178.416 3.27369C179.647 4.20518 180.698 5 182.947 5C185.196 5 186.247 4.20518 187.479 3.27369L187.497 3.26033C188.902 2.19756 190.497 1 193.526 1C196.556 1 198.15 2.19756 199.556 3.26033L199.573 3.27365C200.805 4.20515 201.856 5 204.105 5C206.354 5 207.405 4.20518 208.637 3.27369L208.655 3.26033C210.06 2.19756 211.655 1 214.684 1C217.714 1 219.308 2.19756 220.714 3.26033L220.731 3.27365C221.963 4.20515 223.014 5 225.263 5C227.512 5 228.563 4.20515 229.795 3.27365L229.813 3.26033C231.218 2.19756 232.812 1 235.842 1C238.872 1 240.466 2.19756 241.872 3.26032L241.889 3.27374C243.121 4.2052 244.172 5 246.421 5C248.67 5 249.721 4.20515 250.953 3.27365L250.971 3.26033C252.376 2.19756 253.97 1 257 1C260.021 1 261.611 2.199 263.012 3.26191L263.029 3.27515C264.256 4.20653 265.302 5 267.539 5C269.777 5 270.823 4.20653 272.05 3.27515L272.067 3.26191C273.467 2.199 275.058 1 278.079 1C281.1 1 282.691 2.199 284.091 3.26191L284.108 3.27515C285.335 4.20653 286.381 5 288.618 5C290.856 5 291.902 4.20653 293.129 3.27515L293.146 3.26191C294.546 2.199 296.137 1 299.158 1C302.179 1 303.769 2.199 305.17 3.26191L305.187 3.27515C306.414 4.20653 307.459 5 309.697 5C311.935 5 312.981 4.20653 314.208 3.27515L314.225 3.26191C315.625 2.199 317.216 1 320.237 1C323.258 1 324.848 2.199 326.249 3.26191L326.266 3.27515C327.493 4.20653 328.538 5 330.776 5C333.014 5 334.059 4.20653 335.286 3.27515L335.304 3.26191C336.704 2.199 338.295 1 341.316 1C344.337 1 345.927 2.199 347.328 3.26191L347.345 3.27515C348.572 4.20653 349.617 5 351.855 5C354.093 5 355.139 4.20652 356.365 3.27514L356.383 3.26191C357.783 2.199 359.374 1 362.395 1C365.416 1 367.006 2.199 368.407 3.26191L368.424 3.27517C369.651 4.20654 370.696 5 372.934 5C375.172 5 376.217 4.20653 377.444 3.27515L377.462 3.26191C378.862 2.199 380.452 1 383.474 1C386.495 1 388.085 2.199 389.486 3.26191L389.503 3.27515C390.73 4.20653 391.775 5 394.013 5C396.251 5 397.296 4.20653 398.523 3.27515L398.541 3.26191C399.941 2.199 401.531 1 404.553 1C407.574 1 409.164 2.199 410.565 3.26191L410.582 3.27517C411.809 4.20654 412.854 5 415.092 5C417.33 5 418.375 4.20653 419.602 3.27515L419.62 3.26191C421.02 2.199 422.61 1 425.632 1C428.653 1 430.243 2.199 431.643 3.26191L431.661 3.27517C432.888 4.20654 433.933 5 436.171 5C438.409 5 439.454 4.20653 440.681 3.27516L440.699 3.26191C442.099 2.199 443.689 1 446.711 1C449.732 1 451.322 2.199 452.722 3.26191L452.74 3.27515C453.967 4.20653 455.012 5 457.25 5C459.488 5 460.533 4.20654 461.76 3.27518L461.778 3.26191C463.178 2.199 464.768 1 467.789 1C470.811 1 472.401 2.199 473.801 3.26191L473.819 3.27518C475.046 4.20655 476.091 5 478.329 5C480.567 5 481.612 4.20654 482.839 3.27518L482.857 3.26191C484.257 2.199 485.847 1 488.868 1C491.89 1 493.48 2.199 494.88 3.26191L494.898 3.27516C496.125 4.20653 497.17 5 499.408 5C501.646 5 502.691 4.20654 503.918 3.27518L503.936 3.26191C505.336 2.199 506.926 1 509.947 1C512.969 1 514.559 2.199 515.959 3.26191L515.977 3.27516C517.204 4.20653 518.249 5 520.487 5C522.725 5 523.77 4.20654 524.997 3.27518L525.014 3.26191C526.415 2.199 528.005 1 531.026 1C534.048 1 535.638 2.199 537.038 3.26191L537.056 3.27518C538.283 4.20655 539.328 5 541.566 5C543.804 5 544.849 4.20653 546.076 3.27516L546.093 3.26191C547.494 2.199 549.084 1 552.105 1C555.126 1 556.717 2.199 558.117 3.26191L558.135 3.27518C559.362 4.20655 560.407 5 562.645 5C564.883 5 565.928 4.20654 567.155 3.27518L567.172 3.26191C568.573 2.199 570.163 1 573.184 1C576.205 1 577.796 2.199 579.196 3.26191L579.214 3.27518C580.441 4.20655 581.486 5 583.724 5C585.962 5 587.007 4.20653 588.234 3.27516L588.251 3.26191C589.652 2.199 591.242 1 594.263 1C597.284 1 598.875 2.199 600.275 3.26191L600.292 3.27516C601.519 4.20653 602.565 5 604.803 5C607.041 5 608.086 4.20654 609.313 3.27518L609.33 3.26191C610.731 2.199 612.321 1 615.342 1C618.363 1 619.954 2.199 621.354 3.26191L621.371 3.27516C622.598 4.20653 623.644 5 625.882 5C628.12 5 629.165 4.20653 630.392 3.27516L630.409 3.26191C631.81 2.199 633.4 1 636.421 1C639.442 1 641.033 2.199 642.433 3.26191L642.45 3.2751C643.677 4.2065 644.723 5 646.961 5C649.198 5 650.244 4.20653 651.471 3.27516L651.488 3.26191C652.888 2.199 654.479 1 657.5 1C660.53 1 662.124 2.19756 663.529 3.26033L663.547 3.27369C664.779 4.20518 665.83 5 668.079 5C670.328 5 671.379 4.20515 672.611 3.27365L672.628 3.26033C674.034 2.19756 675.628 1 678.658 1C681.688 1 683.282 2.19756 684.687 3.26033L684.705 3.27369C685.937 4.20518 686.988 5 689.237 5C691.486 5 692.537 4.20518 693.769 3.27369L693.786 3.26033C695.192 2.19756 696.786 1 699.816 1C702.846 1 704.44 2.19756 705.845 3.26033L705.863 3.27365C707.095 4.20515 708.146 5 710.395 5C712.644 5 713.695 4.20518 714.926 3.27369L714.944 3.26033C716.35 2.19756 717.944 1 720.974 1C724.003 1 725.598 2.19756 727.003 3.26033L727.021 3.27365C728.253 4.20515 729.304 5 731.553 5C733.802 5 734.853 4.20518 736.084 3.27369L736.102 3.26033C737.507 2.19756 739.102 1 742.132 1C745.161 1 746.756 2.19756 748.161 3.26033L748.179 3.27369C749.41 4.20518 750.462 5 752.711 5C754.96 5 756.011 4.20515 757.242 3.27365L757.26 3.26033C758.665 2.19756 760.26 1 763.289 1C766.319 1 767.914 2.19756 769.319 3.26033L769.337 3.27369C770.568 4.20518 771.619 5 773.868 5C776.118 5 777.168 4.20518 778.4 3.27369L778.418 3.26033C779.823 2.19756 781.418 1 784.447 1C787.477 1 789.071 2.19756 790.477 3.26033L790.494 3.27365C791.726 4.20515 792.777 5 795.026 5C797.275 5 798.326 4.20518 799.558 3.27369L799.576 3.26033C800.981 2.19756 802.576 1 805.605 1C808.635 1 810.229 2.19756 811.635 3.26033L811.652 3.27369C812.884 4.20518 813.935 5 816.184 5C818.433 5 819.484 4.20515 820.716 3.27365L820.734 3.26033C822.139 2.19756 823.733 1 826.763 1C829.793 1 831.387 2.19756 832.793 3.26033L832.81 3.27369C834.042 4.20518 835.093 5 837.342 5C839.591 5 840.642 4.20515 841.874 3.27365L841.892 3.26033C843.297 2.19756 844.891 1 847.921 1C850.951 1 852.545 2.19756 853.951 3.26033L853.968 3.27369C855.2 4.20518 856.251 5 858.5 5C860.749 5 861.8 4.20518 863.032 3.27369L863.049 3.26033C864.455 2.19756 866.049 1 869.079 1C872.109 1 873.703 2.19756 875.108 3.26033L875.126 3.27369C876.358 4.20518 877.409 5 879.658 5C881.907 5 882.958 4.20515 884.19 3.27365L884.207 3.26033C885.613 2.19756 887.207 1 890.237 1C893.267 1 894.861 2.19756 896.266 3.26033L896.284 3.27369C897.516 4.20518 898.567 5 900.816 5C903.065 5 904.116 4.20515 905.348 3.27365L905.365 3.26033C906.771 2.19756 908.365 1 911.395 1C914.424 1 916.019 2.19756 917.424 3.26033L917.442 3.27369C918.674 4.20518 919.725 5 921.974 5C924.223 5 925.274 4.20518 926.505 3.27369L926.523 3.26033C927.929 2.19756 929.523 1 932.553 1C935.582 1 937.177 2.19756 938.582 3.26033L938.6 3.27365C939.831 4.20515 940.882 5 943.132 5C945.381 5 946.432 4.20518 947.663 3.27369L947.681 3.26033C949.086 2.19756 950.681 1 953.711 1C956.74 1 958.335 2.19756 959.74 3.26033L959.758 3.27365C960.989 4.20515 962.04 5 964.289 5C966.538 5 967.59 4.20518 968.821 3.27369L968.839 3.26033C970.244 2.19756 971.839 1 974.868 1C977.898 1 979.493 2.19756 980.898 3.26033L980.916 3.27369C982.147 4.20518 983.198 5 985.447 5C987.696 5 988.747 4.20518 989.979 3.27369L989.997 3.26033C991.402 2.19756 992.997 1 996.026 1C999.056 1 1000.65 2.19756 1002.06 3.26033L1002.07 3.27365C1003.31 4.20515 1004.36 5 1006.61 5C1008.85 5 1009.91 4.20518 1011.14 3.27369L1011.15 3.26033C1012.56 2.19756 1014.15 1 1017.18 1C1020.21 1 1021.81 2.19756 1023.21 3.26033L1023.23 3.27365C1024.46 4.20515 1025.51 5 1027.76 5C1030.01 5 1031.06 4.20515 1032.29 3.27365L1032.31 3.26033C1033.72 2.19756 1035.31 1 1038.34 1C1041.37 1 1042.97 2.19756 1044.37 3.26032L1044.39 3.27374C1045.62 4.2052 1046.67 5 1048.92 5C1051.17 5 1052.22 4.20515 1053.45 3.27365L1053.47 3.26033C1054.88 2.19756 1056.47 1 1059.5 1" stroke="#D7D9E5" stroke-miterlimit="10"/>
</svg>
